<?xml version="1.0" standalone="no"?>
<!DOCTYPE svg PUBLIC "-//W3C//DTD SVG 20010904//EN"
 "http://www.w3.org/TR/2001/REC-SVG-20010904/DTD/svg10.dtd">
<svg version="1.0" xmlns="http://www.w3.org/2000/svg"
 width="512.000000pt" height="512.000000pt" viewBox="0 0 512.000000 512.000000"
 preserveAspectRatio="xMidYMid meet">
<metadata>
Created by potrace 1.16, written by Peter Selinger 2001-2019
</metadata>
<g transform="translate(0.000000,512.000000) scale(0.100000,-0.100000)"
fill="#000000" stroke="none">
<path d="M2631 3854 c-111 -30 -215 -107 -283 -209 -31 -48 -51 -68 -76 -76
-38 -13 -112 -79 -111 -100 0 -10 2 -10 6 -2 9 23 100 83 138 91 30 6 43 16
60 45 76 137 227 223 400 229 l70 3 3 -127 3 -127 -41 2 c-33 1 -45 7 -66 34
-34 44 -78 65 -137 65 -76 0 -122 -37 -172 -139 -47 -96 -72 -125 -134 -155
-45 -22 -56 -23 -398 -26 -289 -3 -354 -6 -364 -18 -9 -11 -40 -14 -136 -14
l-124 0 3 -62 c3 -57 5 -63 26 -66 l22 -3 0 -740 0 -739 35 0 35 0 0 -300 0
-300 -114 0 c-125 0 -148 -9 -126 -49 l11 -21 1404 0 c1376 0 1405 0 1415 19
5 11 7 27 4 35 -5 13 -27 16 -130 16 l-124 0 0 300 c0 260 2 300 15 300 13 0
15 100 15 840 l0 840 -102 0 -103 0 -23 53 c-44 101 -136 187 -224 206 -55 13
-75 -4 -22 -18 55 -15 124 -61 161 -107 31 -39 73 -112 73 -126 0 -5 -103 -8
-230 -8 l-230 0 0 25 c0 18 -5 25 -20 25 -15 0 -20 -7 -20 -25 0 -24 -3 -25
-55 -25 -54 0 -55 0 -55 -30 0 -20 -5 -30 -15 -30 -13 0 -15 30 -15 210 0 199
1 210 19 210 33 0 144 -39 200 -70 67 -37 78 -32 21 9 -49 35 -134 69 -196 78
l-44 6 0 43 0 44 -97 -1 c-54 0 -122 -7 -152 -15z m47 -231 c13 -8 31 -28 40
-44 11 -18 25 -29 39 -29 60 0 83 -39 83 -140 l0 -70 -292 1 c-236 0 -287 3
-261 12 75 28 119 71 163 161 47 95 54 103 107 121 42 15 86 10 121 -12z
m1023 -1058 c0 -429 -1 -783 -1 -787 0 -5 -171 -8 -380 -8 l-380 0 0 790 0
790 381 -2 382 -3 -2 -780z m-1758 748 l67 -6 0 -33 0 -34 -345 0 -345 0 0 30
0 30 120 0 c73 0 120 4 120 10 0 11 273 14 383 3z m977 -728 l0 -705 -420 0
-420 0 0 705 0 705 420 0 420 0 0 -705z m-910 160 l0 -465 -300 0 -300 0 0
460 0 460 273 3 c149 1 284 3 300 5 l27 2 0 -465z m-630 -260 c0 -629 -2 -715
-15 -715 -13 0 -15 86 -15 715 0 629 2 715 15 715 13 0 15 -86 15 -715z m630
-480 l0 -235 -300 0 -300 0 0 235 0 235 300 0 300 0 0 -235z m110 -525 c0
-353 0 -360 -20 -360 -20 0 -20 7 -20 360 0 353 0 360 20 360 20 0 20 -7 20
-360z m720 0 c0 -313 -2 -360 -15 -360 -13 0 -15 44 -15 335 l0 335 -280 0
c-242 0 -280 -2 -280 -15 0 -11 12 -15 45 -15 l45 0 0 -290 0 -290 -47 -30
c-38 -24 -57 -30 -93 -28 l-45 3 -3 358 -2 357 345 0 345 0 0 -360z m79 6 c-2
-195 -7 -358 -11 -361 -4 -4 -14 -5 -23 -2 -13 6 -15 51 -15 362 l0 355 26 0
26 0 -3 -354z m-1351 229 c-3 -3 -29 -23 -58 -45 l-53 -39 2 -256 c2 -251 2
-255 -18 -255 -21 0 -21 4 -21 300 l0 300 77 0 c42 0 74 -2 71 -5z m440 -112
l-3 -118 -52 -3 -53 -3 0 -49 0 -49 53 -3 52 -3 3 -127 3 -128 -71 0 -70 0 -2
228 -3 227 -187 3 c-218 3 -222 5 -128 77 33 25 60 50 60 56 0 5 82 9 200 9
l201 0 -3 -117z m1682 -183 l0 -300 -280 0 -280 0 0 120 0 120 233 0 c127 0
238 4 245 8 9 7 12 42 10 143 l-3 134 -262 3 c-207 2 -263 0 -264 -10 -6 -64
-4 -270 3 -274 4 -3 8 -59 8 -125 l0 -120 -67 3 -68 3 -3 298 -2 297 365 0
365 0 0 -300z m-1070 260 c5 -8 10 -120 10 -252 l0 -238 -125 0 -125 0 0 228
c0 125 3 237 6 249 7 25 21 28 142 28 63 0 85 -4 92 -15z m140 -260 l0 -230
-45 0 -45 0 0 230 0 230 45 0 45 0 0 -230z m490 75 l0 -75 -60 0 -60 0 0 75 0
75 60 0 60 0 0 -75z m100 0 l0 -75 -30 0 -30 0 0 75 0 75 30 0 30 0 0 -75z
m220 0 l0 -75 -40 0 -40 0 0 75 0 75 40 0 40 0 0 -75z m-1740 -25 c0 -73 -2
-80 -20 -80 -16 0 -20 -7 -20 -36 0 -27 5 -37 20 -41 18 -5 20 -14 20 -99 l0
-94 -140 0 -140 0 0 215 0 215 140 0 140 0 0 -80z m150 -35 c0 -18 -5 -25 -20
-25 -15 0 -20 7 -20 25 0 18 5 25 20 25 15 0 20 -7 20 -25z m790 -300 c0 -13
-29 -15 -200 -15 -171 0 -200 2 -200 15 0 13 29 15 200 15 171 0 200 -2 200
-15z"/>
<path d="M3020 3040 l0 -160 315 0 315 0 0 160 0 160 -315 0 -315 0 0 -160z
m177 -62 c-1 -40 -3 -10 -3 67 0 77 1 110 3 73 2 -37 2 -100 0 -140z m231 60
l3 -116 -85 -7 c-47 -4 -92 -5 -101 -1 -12 4 -15 27 -15 126 l0 121 98 -3 97
-3 3 -117z m192 -3 l0 -125 -80 0 -80 0 0 125 0 125 80 0 80 0 0 -125z m-460
-6 l0 -120 -52 3 -53 3 -3 118 -3 117 56 0 55 0 0 -121z"/>
<path d="M3475 3094 c-4 -31 -4 -83 0 -115 l7 -59 59 0 c58 0 59 1 59 28 0 15
2 56 5 92 6 105 3 110 -65 110 l-58 0 -7 -56z"/>
<path d="M3020 2585 l0 -144 315 -3 315 -3 0 148 0 147 -315 0 -315 0 0 -145z
m177 -67 c-2 -35 -3 -7 -3 62 0 69 1 97 3 63 2 -35 2 -91 0 -125z m-37 57 l0
-105 -55 0 -55 0 0 98 c0 54 3 102 7 105 3 4 28 7 55 7 l48 0 0 -105z m260 0
l0 -105 -95 0 -95 0 0 105 0 105 95 0 95 0 0 -105z m200 -5 c0 -67 -4 -110
-10 -110 -6 0 -10 42 -10 105 l0 105 -60 0 -60 0 0 -105 c0 -63 -4 -105 -10
-105 -6 0 -10 43 -10 110 l0 110 80 0 80 0 0 -110z m-73 -106 c-3 -3 -12 -4
-19 -1 -8 3 -5 6 6 6 11 1 17 -2 13 -5z"/>
<path d="M3020 2085 l0 -165 315 0 315 0 0 165 0 165 -315 0 -315 0 0 -165z
m177 -47 c-2 -35 -3 -9 -3 57 0 66 1 94 3 63 2 -32 2 -86 0 -120z m225 114 c1
-27 1 -76 0 -110 l-4 -62 -93 0 -94 0 0 110 0 110 93 0 94 0 4 -48z m198 -75
l0 -124 -107 -6 c-112 -7 -489 -10 -482 -3 3 2 388 13 569 16 3 0 4 52 2 115
l-3 115 -64 0 -64 0 -4 -107 -3 -108 -2 113 -2 112 80 0 80 0 0 -123z m-460 7
l0 -105 -52 3 -53 3 -3 103 -3 102 56 0 55 0 0 -106z"/>
<path d="M2130 3065 l0 -145 170 0 170 0 0 145 0 145 -170 0 -170 0 0 -145z
m150 60 l0 -35 -50 0 -50 0 0 35 0 35 50 0 50 0 0 -35z m130 0 c0 -35 0 -35
-45 -35 -45 0 -45 0 -45 35 0 35 0 35 45 35 45 0 45 0 45 -35z m-130 -115 l0
-50 -50 0 -50 0 0 50 0 50 50 0 50 0 0 -50z m130 0 l0 -50 -45 0 -45 0 0 50 0
50 45 0 45 0 0 -50z"/>
<path d="M2590 3065 l0 -145 130 0 130 0 0 145 0 145 -130 0 -130 0 0 -145z
m200 -5 l0 -100 -75 0 -75 0 0 100 0 100 75 0 75 0 0 -100z"/>
<path d="M2132 2588 l3 -143 168 -3 167 -2 0 145 0 145 -170 0 -171 0 3 -142z
m146 50 l3 -38 -50 0 -51 0 0 41 0 40 48 -3 c47 -3 47 -3 50 -40z m132 0 l0
-38 -50 0 -50 0 0 33 c0 44 6 48 57 45 43 -3 43 -3 43 -40z m-135 -103 l0 -40
-47 -3 -48 -3 0 40 c0 42 12 50 70 47 22 -1 25 -5 25 -41z m145 20 c0 -11 -12
-15 -49 -15 -46 0 -50 -2 -54 -27 -3 -20 -4 -15 -6 15 l-1 42 55 0 c42 0 55
-3 55 -15z"/>
<path d="M2592 2588 l3 -143 128 -3 127 -3 0 146 0 145 -130 0 -131 0 3 -142z
m198 -3 l0 -95 -75 0 -75 0 0 95 0 95 75 0 75 0 0 -95z"/>
<path d="M2130 2108 l0 -143 170 -3 171 -3 -3 143 -3 143 -167 3 -168 2 0
-142z m150 58 c0 -38 -12 -46 -66 -46 -33 0 -34 1 -34 40 l0 40 50 0 50 0 0
-34z m130 24 c0 -5 -22 -10 -50 -10 -27 0 -50 5 -50 10 0 6 23 10 50 10 28 0
50 -4 50 -10z m-130 -135 l0 -45 -50 0 -50 0 0 45 0 45 50 0 50 0 0 -45z m140
-5 l0 -40 -55 0 -55 0 0 40 0 40 55 0 55 0 0 -40z"/>
<path d="M2592 2108 l3 -143 125 2 125 3 3 140 3 140 -131 0 -131 0 3 -142z
m198 -8 l0 -100 -75 0 -75 0 0 100 0 100 75 0 75 0 0 -100z"/>
<path d="M1430 2950 c0 -127 -3 -123 110 -118 l65 3 3 113 3 112 -91 0 -90 0
0 -110z m135 40 c-3 -5 -26 -10 -51 -10 -24 0 -44 5 -44 10 0 6 23 10 51 10
31 0 48 -4 44 -10z m-5 -65 c0 -34 -1 -35 -40 -35 -39 0 -40 1 -40 35 0 34 1
35 40 35 39 0 40 -1 40 -35z"/>
<path d="M1800 2950 l0 -110 80 0 80 0 0 110 0 110 -80 0 -80 0 0 -110z m119
46 c-12 -10 -79 -16 -79 -6 0 5 19 10 42 10 23 0 39 -2 37 -4z m-9 -66 c0 -28
-3 -30 -35 -30 -32 0 -35 2 -35 30 0 28 3 30 35 30 32 0 35 -2 35 -30z"/>
<path d="M1430 2515 l0 -115 85 0 85 0 0 115 0 115 -85 0 -85 0 0 -115z m108
38 c-16 -2 -40 -2 -55 0 -16 2 -3 4 27 4 30 0 43 -2 28 -4z m22 -68 c0 -35 0
-35 -45 -35 -45 0 -45 0 -45 35 0 35 0 35 45 35 45 0 45 0 45 -35z"/>
<path d="M1799 2626 c-2 -2 -3 -54 -1 -115 l3 -111 80 0 79 0 0 115 0 115 -78
0 c-43 0 -81 -2 -83 -4z m104 -73 c-13 -2 -35 -2 -50 0 -16 2 -5 4 22 4 28 0
40 -2 28 -4z m7 -63 c0 -28 -2 -30 -40 -30 -38 0 -40 2 -40 30 0 28 2 30 40
30 38 0 40 -2 40 -30z"/>
<path d="M1430 2050 l0 -120 90 0 90 0 0 120 0 120 -90 0 -90 0 0 -120z m130
50 c0 -5 -18 -10 -39 -10 -22 0 -43 5 -46 10 -4 6 12 10 39 10 25 0 46 -4 46
-10z m-2 -72 c-3 -43 -3 -43 -43 -43 -43 0 -52 14 -41 61 5 20 12 24 47 24
l40 0 -3 -42z"/>
<path d="M1800 2055 l0 -115 80 0 80 0 0 115 0 115 -80 0 -80 0 0 -115z m120
45 c0 -5 -18 -10 -40 -10 -22 0 -40 5 -40 10 0 6 18 10 40 10 22 0 40 -4 40
-10z m-2 -62 c-2 -19 -10 -24 -40 -26 -35 -3 -38 -1 -38 22 0 24 4 26 41 26
36 0 40 -2 37 -22z"/>
<path d="M2990 3826 c75 -26 142 -59 185 -90 44 -33 55 -38 55 -28 0 5 -27 28
-61 52 -63 44 -175 90 -219 89 -16 0 -1 -9 40 -23z"/>
</g>
</svg>